<?xml version="1.0" encoding="UTF-8"?>
<svg id="Layer_2" data-name="Layer 2" xmlns="http://www.w3.org/2000/svg" xmlns:xlink="http://www.w3.org/1999/xlink" viewBox="0 0 29.18 28.2">
  <defs>
    <style>
      .cls-1 {
        fill: url(#linear-gradient);
      }
    </style>
    <linearGradient id="linear-gradient" x1="9.34" y1="29.35" x2="20.44" y2="-1.14" gradientUnits="userSpaceOnUse">
      <stop offset="0" stop-color="#0f6b9f"/>
      <stop offset="1" stop-color="#a9fff4"/>
    </linearGradient>
  </defs>
  <g id="Layer_1-2" data-name="Layer 1">
    <path class="cls-1" d="M28.83,7.91l-.34,.95-.14-1s-.44-3.02-2.09-4.4c-2.1-1.75-6.6-1.19-7.49-1.06-1.91,.28-5.91,1.78-9.1,4.75-2.9,2.7-6.67,6.94-6,12.63,.29,2.42,1.75,3.57,3.14,4.37,1.23,.71,3.67,.73,5.44,.37,1.24-.25,2.73-.86,2.74-.87l.68-.28-.37,.64s-2.46,4.19-7.39,4.19c-5.85,0-7.93-4.35-7.93-8.08,0-4.29,1.13-7.26,4.32-11.36C7.47,4.73,11.08,2.1,15.37,.74,18.33-.2,21.76,0,22.74,.07c2.44,.2,4.61,1.26,5.53,2.7,.97,1.51,1.18,3.44,.56,5.15Zm-5.51,6.88l.99-3.76-3.78,.95-2.04-4.22-2.04,4.22-3.75-.95,.96,3.76-4.42,2.01,4.38,2-.88,3.89,3.68-1.16,2.07,4.31,2.08-4.31,3.75,1.09-.94-3.83,4.38-2-4.42-2.01Z"/>
  </g>
</svg>